<svg width="160" height="140" viewBox="0 0 160 140" fill="none" xmlns="http://www.w3.org/2000/svg">
<rect width="20" height="20" transform="matrix(-1 0 0 1 160 40)" fill="white"/>
<rect width="20" height="20" transform="matrix(-1 0 0 1 160 20)" fill="white"/>
<rect width="20" height="20" transform="matrix(-1 0 0 1 160 60)" fill="white"/>
<rect width="20" height="20" transform="matrix(-1 0 0 1 80 80)" fill="white"/>
<rect width="20" height="20" transform="matrix(-1 0 0 1 160 80)" fill="white"/>
<rect width="20" height="20" transform="matrix(-1 0 0 1 60 80)" fill="white"/>
<rect width="20" height="20" transform="matrix(-1 0 0 1 60 100)" fill="white"/>
<rect width="20" height="20" transform="matrix(-1 0 0 1 20 100)" fill="white"/>
<rect width="20" height="20" transform="matrix(-1 0 0 1 60 120)" fill="white"/>
<rect width="20" height="20" transform="matrix(-1 0 0 1 20 120)" fill="white"/>
<rect width="20" height="20" transform="matrix(-1 0 0 1 100 60)" fill="white"/>
<rect width="20" height="20" transform="matrix(-1 0 0 1 120 60)" fill="white"/>
<rect width="20" height="20" transform="matrix(-1 0 0 1 140 80)" fill="white"/>
<rect width="20" height="20" transform="matrix(-1 0 0 1 140 100)" fill="white"/>
<rect width="20" height="20" transform="matrix(-1 0 0 1 140 120)" fill="white"/>
<rect width="20" height="20" transform="matrix(-1 0 0 1 40 80)" fill="white"/>
<rect width="20" height="20" transform="matrix(-1 0 0 1 80 60)" fill="white"/>
<rect width="20" height="20" transform="matrix(-1 0 0 1 120 80)" fill="white"/>
<rect width="20" height="20" transform="matrix(-1 0 0 1 20 80)" fill="white"/>
<rect width="20" height="20" transform="matrix(-1 0 0 1 60 60)" fill="white"/>
<rect width="20" height="20" transform="matrix(-1 0 0 1 40 60)" fill="white"/>
<rect width="20" height="20" transform="matrix(-1 0 0 1 100 80)" fill="white"/>
<rect width="20" height="20" transform="matrix(-1 0 0 1 100 100)" fill="white"/>
<rect width="20" height="20" transform="matrix(-1 0 0 1 100 120)" fill="white"/>
<rect width="20" height="20" transform="matrix(-1 0 0 1 20 60)" fill="white"/>
<rect width="20" height="20" transform="matrix(-1 0 0 1 20 40)" fill="white"/>
<rect width="20" height="20" transform="matrix(-1 0 0 1 20 20)" fill="white"/>
<rect width="20" height="20" transform="matrix(-1 0 0 1 20 0)" fill="white"/>
<rect width="20" height="20" transform="matrix(-1 0 0 1 140 60)" fill="white"/>
<rect width="20" height="20" transform="matrix(-1 0 0 1 120 60)" fill="white"/>
<rect width="20" height="20" transform="matrix(-1 0 0 1 140 40)" fill="white"/>
<rect width="20" height="20" transform="matrix(-1 0 0 1 120 40)" fill="white"/>
<rect width="20" height="20" transform="matrix(-1 0 0 1 120 20)" fill="white"/>
</svg>
